<?xml version="1.0" standalone="no"?>
<!DOCTYPE svg PUBLIC "-//W3C//DTD SVG 20010904//EN"
 "http://www.w3.org/TR/2001/REC-SVG-20010904/DTD/svg10.dtd">
<svg version="1.0" xmlns="http://www.w3.org/2000/svg"
 width="1920.000000pt" height="1080.000000pt" viewBox="0 0 1920.000000 1080.000000"
 preserveAspectRatio="xMidYMid meet">

<g transform="translate(0.000000,1080.000000) scale(0.100000,-0.100000)"
fill="#000000" stroke="none">
<path d="M7820 5890 c-111 -65 -218 -106 -319 -120 -74 -11 -82 -15 -87 -37
-11 -44 4 -235 25 -313 42 -158 156 -342 272 -441 65 -55 188 -139 205 -139 6
0 47 23 89 51 189 123 325 300 390 509 29 95 52 267 42 321 l-7 36 -93 15
c-108 18 -221 60 -331 123 -44 25 -84 45 -90 45 -6 0 -49 -23 -96 -50z m152
-41 c113 -67 309 -139 379 -139 29 0 29 -1 29 -58 0 -254 -140 -519 -360 -681
-106 -79 -97 -78 -181 -19 -210 148 -343 369 -367 615 -14 137 -14 137 70 151
87 15 207 62 301 118 40 24 73 43 74 43 1 1 26 -13 55 -30z"/>
<path d="M9237 5543 c-4 -3 -7 -91 -7 -195 l0 -188 24 0 c13 0 26 5 28 10 2 7
16 5 36 -6 74 -36 152 17 152 103 0 63 -40 103 -102 103 -24 0 -54 -7 -66 -16
l-22 -15 0 105 c0 96 -2 106 -18 106 -10 0 -22 -3 -25 -7z m166 -236 c42 -49
-9 -130 -69 -110 -62 20 -70 102 -14 130 30 15 59 8 83 -20z"/>
<path d="M8725 5506 c-40 -17 -82 -67 -95 -114 -13 -48 -13 -66 2 -115 25 -83
113 -136 203 -122 59 8 81 26 66 53 -10 19 -13 20 -42 5 -49 -24 -107 -12
-146 31 -29 31 -33 42 -33 92 0 52 3 59 39 95 33 33 45 39 80 39 23 0 52 -5
63 -11 21 -11 37 1 38 27 0 32 -118 45 -175 20z"/>
<path d="M10055 5511 c-56 -23 -77 -100 -39 -142 10 -12 39 -31 64 -42 25 -11
53 -26 63 -35 21 -19 22 -55 1 -76 -19 -20 -80 -21 -116 -2 -25 13 -29 13 -38
-4 -15 -27 -15 -28 44 -46 117 -37 204 27 172 126 -9 29 -22 41 -81 70 -73 36
-91 64 -65 96 15 17 82 19 112 3 16 -9 23 -8 29 2 14 23 11 29 -26 45 -37 15
-89 17 -120 5z"/>
<path d="M11135 5496 c-68 -41 -105 -131 -85 -205 33 -123 175 -176 282 -106
83 55 104 185 42 261 -62 77 -160 97 -239 50z m166 -49 c67 -45 77 -148 18
-206 -85 -85 -219 -23 -219 102 0 44 4 53 39 88 33 34 45 39 83 39 30 0 56 -8
79 -23z"/>
<path d="M11470 5495 c0 -23 4 -25 45 -25 l45 0 0 -155 0 -155 25 0 24 0 3
153 3 152 48 3 c42 3 47 5 47 28 l0 24 -120 0 -120 0 0 -25z"/>
<path d="M10855 5366 c-49 -63 -91 -119 -93 -125 -2 -7 19 -11 67 -11 l71 0 0
-35 c0 -31 3 -35 25 -35 22 0 25 4 25 35 0 28 4 35 20 35 13 0 20 7 20 20 0
13 -7 20 -20 20 -18 0 -20 8 -22 105 l-3 104 -90 -113z m42 -93 c-3 -2 -19 -3
-37 -1 l-31 3 33 45 33 45 3 -44 c2 -24 1 -45 -1 -48z"/>
<path d="M9118 5322 c-11 -26 -26 -60 -32 -75 l-13 -28 -32 71 c-27 58 -37 70
-57 70 -13 0 -24 -2 -24 -5 0 -3 20 -48 44 -99 l44 -95 -24 -51 -24 -51 27 3
c23 3 32 17 80 128 79 182 75 167 52 173 -17 4 -24 -3 -41 -41z"/>
<path d="M9554 5336 c-28 -28 -34 -42 -34 -75 0 -76 80 -130 153 -102 29 11
32 18 18 40 -7 10 -13 11 -31 1 -17 -9 -28 -9 -51 0 -16 7 -29 16 -29 20 0 5
36 20 80 35 44 15 80 29 80 31 0 3 -7 18 -15 34 -19 37 -43 50 -95 50 -34 0
-48 -6 -76 -34z m104 -12 c12 -8 22 -18 22 -23 0 -10 -99 -45 -107 -38 -11 12
7 54 29 65 31 14 30 14 56 -4z"/>
<path d="M9876 5345 c-24 -22 -26 -23 -26 -5 0 15 -7 20 -25 20 l-25 0 0 -100
0 -100 25 0 c24 0 25 3 25 54 0 59 27 106 61 106 14 0 19 7 19 25 0 32 -20 32
-54 0z"/>
<path d="M10304 5336 c-46 -46 -48 -101 -5 -148 26 -29 35 -33 80 -33 54 0 75
12 65 38 -4 13 -11 14 -32 6 -26 -10 -82 4 -82 21 0 5 36 20 80 35 44 15 80
29 80 31 0 3 -7 18 -15 34 -19 37 -43 50 -95 50 -34 0 -48 -6 -76 -34z m104
-12 c12 -8 22 -18 22 -23 0 -10 -99 -45 -107 -38 -11 12 7 54 29 65 31 14 30
14 56 -4z"/>
<path d="M10583 5350 c-70 -42 -63 -154 11 -185 42 -18 67 -19 100 -4 39 18
22 42 -25 34 -32 -6 -42 -3 -64 19 -31 31 -32 55 -4 90 19 24 28 27 67 24 52
-3 69 16 27 32 -40 15 -77 12 -112 -10z"/>
</g>
</svg>
